<svg width="40" height="40" viewBox="0 0 40 40" fill="none" xmlns="http://www.w3.org/2000/svg">
<path d="M19.2106 11.6832V13.2674C16.1185 13.5974 13.6842 16.0397 13.3553 19.142H11.7764L0 7.39276V0H7.50004L19.2106 11.6832Z" fill="#FA4F40"/>
<path d="M40.0001 32.4752V39.934H32.5659L20.8553 28.1848V26.6006C23.9475 26.2706 26.3817 23.8283 26.7106 20.726H28.2896L40.0001 32.4752Z" fill="#5EB2FA"/>
<path d="M40.0001 0V7.45877L28.2238 19.208H26.6448C26.3159 16.1057 23.8159 13.6634 20.7896 13.3334V11.7492L32.5659 0H40.0001Z" fill="#FFD248"/>
<path d="M19.2106 26.6666V28.2508L7.50004 40H0V32.4752L11.7764 20.726H13.3553C13.6842 23.8283 16.1185 26.2706 19.2106 26.6666Z" fill="#5EDB7C"/>
<path d="M20.0001 23.4985C21.9258 23.4985 23.4869 21.9322 23.4869 20.0001C23.4869 18.068 21.9258 16.5018 20.0001 16.5018C18.0743 16.5018 16.5132 18.068 16.5132 20.0001C16.5132 21.9322 18.0743 23.4985 20.0001 23.4985Z" fill="#E8EAF5"/>
</svg>
